<svg xmlns="http://www.w3.org/2000/svg" xmlns:xlink="http://www.w3.org/1999/xlink" contentStyleType="text/css" data-diagram-type="DESCRIPTION" height="707px" preserveAspectRatio="none" style="width:1258px;height:707px;background:#FFFFFF;" version="1.1" viewBox="0 0 1258 707" width="1258px" zoomAndPan="magnify"><title>Component Diagram: Data-Oriented Design (DOD) for AI Pipeline</title><defs/><g><g class="title" data-source-line="1"><text fill="#000000" font-family="sans-serif" font-size="14" font-weight="bold" lengthAdjust="spacing" textLength="431.7031" x="406.1484" y="24.5332">Component Diagram: Data-Oriented Design (DOD) for AI Pipeline</text></g><!--cluster Data Source Layer--><g class="cluster" data-entity="Data Source Layer" data-source-line="3" data-uid="ent0002" id="cluster_Data Source Layer"><path d="M48.5,44.6094 L172.4443,44.6094 A3.75,3.75 0 0 1 174.9443,47.1094 L181.9443,68.2188 L420.5,68.2188 A2.5,2.5 0 0 1 423,70.7188 L423,142.1094 A2.5,2.5 0 0 1 420.5,144.6094 L48.5,144.6094 A2.5,2.5 0 0 1 46,142.1094 L46,47.1094 A2.5,2.5 0 0 1 48.5,44.6094" fill="none" style="stroke:#000000;stroke-width:1.5;"/><line style="stroke:#000000;stroke-width:1.5;" x1="46" x2="181.9443" y1="68.2188" y2="68.2188"/><text fill="#000000" font-family="sans-serif" font-size="14" font-weight="bold" lengthAdjust="spacing" textLength="122.9443" x="50" y="61.1426">Data Source Layer</text></g><!--cluster Data Ingestion & Storage Layer--><g class="cluster" data-entity="Data Ingestion . Storage Layer" data-source-line="8" data-uid="ent0005" id="cluster_Data Ingestion . Storage Layer"><path d="M30.5,177.6094 L239.2168,177.6094 A3.75,3.75 0 0 1 241.7168,180.1094 L248.7168,201.2188 L446.5,201.2188 A2.5,2.5 0 0 1 449,203.7188 L449,292.1094 A2.5,2.5 0 0 1 446.5,294.6094 L30.5,294.6094 A2.5,2.5 0 0 1 28,292.1094 L28,180.1094 A2.5,2.5 0 0 1 30.5,177.6094" fill="none" style="stroke:#000000;stroke-width:1.5;"/><line style="stroke:#000000;stroke-width:1.5;" x1="28" x2="248.7168" y1="201.2188" y2="201.2188"/><text fill="#000000" font-family="sans-serif" font-size="14" font-weight="bold" lengthAdjust="spacing" textLength="207.7168" x="32" y="194.1426">Data Ingestion &amp; Storage Layer</text></g><!--cluster Processing & Vectorization Layer--><g class="cluster" data-entity="Processing . Vectorization Layer" data-source-line="13" data-uid="ent0008" id="cluster_Processing . Vectorization Layer"><path d="M8.5,344.6094 L232.0166,344.6094 A3.75,3.75 0 0 1 234.5166,347.1094 L241.5166,368.2188 L279.5,368.2188 A2.5,2.5 0 0 1 282,370.7188 L282,698.1094 A2.5,2.5 0 0 1 279.5,700.6094 L8.5,700.6094 A2.5,2.5 0 0 1 6,698.1094 L6,347.1094 A2.5,2.5 0 0 1 8.5,344.6094" fill="none" style="stroke:#000000;stroke-width:1.5;"/><line style="stroke:#000000;stroke-width:1.5;" x1="6" x2="241.5166" y1="368.2188" y2="368.2188"/><text fill="#000000" font-family="sans-serif" font-size="14" font-weight="bold" lengthAdjust="spacing" textLength="222.5166" x="10" y="361.1426">Processing &amp; Vectorization Layer</text></g><!--cluster AI Model Layer--><g class="cluster" data-entity="AI Model Layer" data-source-line="19" data-uid="ent0012" id="cluster_AI Model Layer"><path d="M561.5,186.1094 L662.0791,186.1094 A3.75,3.75 0 0 1 664.5791,188.6094 L671.5791,209.7188 L1061.5,209.7188 A2.5,2.5 0 0 1 1064,212.2188 L1064,283.6094 A2.5,2.5 0 0 1 1061.5,286.1094 L561.5,286.1094 A2.5,2.5 0 0 1 559,283.6094 L559,188.6094 A2.5,2.5 0 0 1 561.5,186.1094" fill="none" style="stroke:#000000;stroke-width:1.5;"/><line style="stroke:#000000;stroke-width:1.5;" x1="559" x2="671.5791" y1="209.7188" y2="209.7188"/><text fill="#000000" font-family="sans-serif" font-size="14" font-weight="bold" lengthAdjust="spacing" textLength="99.5791" x="563" y="202.6426">AI Model Layer</text></g><!--cluster Serving & Inference Layer--><g class="cluster" data-entity="Serving . Inference Layer" data-source-line="24" data-uid="ent0015" id="cluster_Serving . Inference Layer"><path d="M1011.5,344.6094 L1185.2373,344.6094 A3.75,3.75 0 0 1 1187.7373,347.1094 L1194.7373,368.2188 L1248.5,368.2188 A2.5,2.5 0 0 1 1251,370.7188 L1251,442.1094 A2.5,2.5 0 0 1 1248.5,444.6094 L1011.5,444.6094 A2.5,2.5 0 0 1 1009,442.1094 L1009,347.1094 A2.5,2.5 0 0 1 1011.5,344.6094" fill="none" style="stroke:#000000;stroke-width:1.5;"/><line style="stroke:#000000;stroke-width:1.5;" x1="1009" x2="1194.7373" y1="368.2188" y2="368.2188"/><text fill="#000000" font-family="sans-serif" font-size="14" font-weight="bold" lengthAdjust="spacing" textLength="172.7373" x="1013" y="361.1426">Serving &amp; Inference Layer</text></g><!--cluster Monitoring & Optimization Layer--><g class="cluster" data-entity="Monitoring . Optimization Layer" data-source-line="28" data-uid="ent0017" id="cluster_Monitoring . Optimization Layer"><path d="M389.5,344.6094 L606.7207,344.6094 A3.75,3.75 0 0 1 609.2207,347.1094 L616.2207,368.2188 L616.5,368.2188 A2.5,2.5 0 0 1 619,370.7188 L619,570.1094 A2.5,2.5 0 0 1 616.5,572.6094 L389.5,572.6094 A2.5,2.5 0 0 1 387,570.1094 L387,347.1094 A2.5,2.5 0 0 1 389.5,344.6094" fill="none" style="stroke:#000000;stroke-width:1.5;"/><line style="stroke:#000000;stroke-width:1.5;" x1="387" x2="616.2207" y1="368.2188" y2="368.2188"/><text fill="#000000" font-family="sans-serif" font-size="14" font-weight="bold" lengthAdjust="spacing" textLength="216.2207" x="391" y="361.1426">Monitoring &amp; Optimization Layer</text></g><!--entity Real-time Streams--><g class="entity" data-entity="Real-time Streams" data-source-line="4" data-uid="ent0003" id="entity_Real-time Streams"><rect fill="#F1F1F1" height="47.6094" rx="2.5" ry="2.5" style="stroke:#181818;stroke-width:0.5;" width="155.917" x="62" y="80.6094"/><rect fill="#F1F1F1" height="10" style="stroke:#181818;stroke-width:0.5;" width="15" x="197.917" y="85.6094"/><rect fill="#F1F1F1" height="2" style="stroke:#181818;stroke-width:0.5;" width="4" x="195.917" y="87.6094"/><rect fill="#F1F1F1" height="2" style="stroke:#181818;stroke-width:0.5;" width="4" x="195.917" y="91.6094"/><text fill="#000000" font-family="sans-serif" font-size="14" lengthAdjust="spacing" textLength="115.917" x="77" y="115.1426">Real-time Streams</text></g><!--entity Batch Data Stores--><g class="entity" data-entity="Batch Data Stores" data-source-line="5" data-uid="ent0004" id="entity_Batch Data Stores"><rect fill="#F1F1F1" height="47.6094" rx="2.5" ry="2.5" style="stroke:#181818;stroke-width:0.5;" width="153.6133" x="253" y="80.6094"/><rect fill="#F1F1F1" height="10" style="stroke:#181818;stroke-width:0.5;" width="15" x="386.6133" y="85.6094"/><rect fill="#F1F1F1" height="2" style="stroke:#181818;stroke-width:0.5;" width="4" x="384.6133" y="87.6094"/><rect fill="#F1F1F1" height="2" style="stroke:#181818;stroke-width:0.5;" width="4" x="384.6133" y="91.6094"/><text fill="#000000" font-family="sans-serif" font-size="14" lengthAdjust="spacing" textLength="113.6133" x="268" y="115.1426">Batch Data Stores</text></g><!--entity ColumnStore--><g class="entity" data-entity="ColumnStore" data-source-line="9" data-uid="ent0006" id="entity_ColumnStore"><rect fill="#F1F1F1" height="65.2188" rx="2.5" ry="2.5" style="stroke:#181818;stroke-width:0.5;" width="190.1787" x="243" y="213.6094"/><rect fill="#F1F1F1" height="10" style="stroke:#181818;stroke-width:0.5;" width="15" x="413.1787" y="218.6094"/><rect fill="#F1F1F1" height="2" style="stroke:#181818;stroke-width:0.5;" width="4" x="411.1787" y="220.6094"/><rect fill="#F1F1F1" height="2" style="stroke:#181818;stroke-width:0.5;" width="4" x="411.1787" y="224.6094"/><text fill="#000000" font-family="sans-serif" font-size="14" lengthAdjust="spacing" textLength="113.6133" x="258" y="248.1426">Columnar Storage</text><text fill="#000000" font-family="sans-serif" font-size="14" lengthAdjust="spacing" textLength="150.1787" x="258" y="265.752">(Apache Arrow/Parquet)</text></g><!--entity StreamPlatform--><g class="entity" data-entity="StreamPlatform" data-source-line="10" data-uid="ent0007" id="entity_StreamPlatform"><rect fill="#F1F1F1" height="65.2188" rx="2.5" ry="2.5" style="stroke:#181818;stroke-width:0.5;" width="163.6963" x="44" y="213.6094"/><rect fill="#F1F1F1" height="10" style="stroke:#181818;stroke-width:0.5;" width="15" x="187.6963" y="218.6094"/><rect fill="#F1F1F1" height="2" style="stroke:#181818;stroke-width:0.5;" width="4" x="185.6963" y="220.6094"/><rect fill="#F1F1F1" height="2" style="stroke:#181818;stroke-width:0.5;" width="4" x="185.6963" y="224.6094"/><text fill="#000000" font-family="sans-serif" font-size="14" lengthAdjust="spacing" textLength="119.8203" x="59" y="248.1426">Streaming Platform</text><text fill="#000000" font-family="sans-serif" font-size="14" lengthAdjust="spacing" textLength="123.6963" x="59" y="265.752">(Kafka/Arrow Flight)</text></g><!--entity SIMDToken--><g class="entity" data-entity="SIMDToken" data-source-line="14" data-uid="ent0009" id="entity_SIMDToken"><rect fill="#F1F1F1" height="47.6094" rx="2.5" ry="2.5" style="stroke:#181818;stroke-width:0.5;" width="205.751" x="51" y="380.6094"/><rect fill="#F1F1F1" height="10" style="stroke:#181818;stroke-width:0.5;" width="15" x="236.751" y="385.6094"/><rect fill="#F1F1F1" height="2" style="stroke:#181818;stroke-width:0.5;" width="4" x="234.751" y="387.6094"/><rect fill="#F1F1F1" height="2" style="stroke:#181818;stroke-width:0.5;" width="4" x="234.751" y="391.6094"/><text fill="#000000" font-family="sans-serif" font-size="14" lengthAdjust="spacing" textLength="165.751" x="66" y="415.1426">SIMD Tokenization Engine</text></g><!--entity EmbeddingStore--><g class="entity" data-entity="EmbeddingStore" data-source-line="15" data-uid="ent0010" id="entity_EmbeddingStore"><rect fill="#F1F1F1" height="47.6094" rx="2.5" ry="2.5" style="stroke:#181818;stroke-width:0.5;" width="243.9023" x="22" y="508.6094"/><rect fill="#F1F1F1" height="10" style="stroke:#181818;stroke-width:0.5;" width="15" x="245.9023" y="513.6094"/><rect fill="#F1F1F1" height="2" style="stroke:#181818;stroke-width:0.5;" width="4" x="243.9023" y="515.6094"/><rect fill="#F1F1F1" height="2" style="stroke:#181818;stroke-width:0.5;" width="4" x="243.9023" y="519.6094"/><text fill="#000000" font-family="sans-serif" font-size="14" lengthAdjust="spacing" textLength="203.9023" x="37" y="543.1426">Cache-Aligned Embedding Store</text></g><!--entity BatchManager--><g class="entity" data-entity="BatchManager" data-source-line="16" data-uid="ent0011" id="entity_BatchManager"><rect fill="#F1F1F1" height="47.6094" rx="2.5" ry="2.5" style="stroke:#181818;stroke-width:0.5;" width="218.999" x="46.5" y="636.6094"/><rect fill="#F1F1F1" height="10" style="stroke:#181818;stroke-width:0.5;" width="15" x="245.499" y="641.6094"/><rect fill="#F1F1F1" height="2" style="stroke:#181818;stroke-width:0.5;" width="4" x="243.499" y="643.6094"/><rect fill="#F1F1F1" height="2" style="stroke:#181818;stroke-width:0.5;" width="4" x="243.499" y="647.6094"/><text fill="#000000" font-family="sans-serif" font-size="14" lengthAdjust="spacing" textLength="178.999" x="61.5" y="671.1426">Aligned Data Batch Manager</text></g><!--entity LLM--><g class="entity" data-entity="LLM" data-source-line="20" data-uid="ent0013" id="entity_LLM"><rect fill="#F1F1F1" height="47.6094" rx="2.5" ry="2.5" style="stroke:#181818;stroke-width:0.5;" width="238.4541" x="575" y="222.1094"/><rect fill="#F1F1F1" height="10" style="stroke:#181818;stroke-width:0.5;" width="15" x="793.4541" y="227.1094"/><rect fill="#F1F1F1" height="2" style="stroke:#181818;stroke-width:0.5;" width="4" x="791.4541" y="229.1094"/><rect fill="#F1F1F1" height="2" style="stroke:#181818;stroke-width:0.5;" width="4" x="791.4541" y="233.1094"/><text fill="#000000" font-family="sans-serif" font-size="14" lengthAdjust="spacing" textLength="198.4541" x="590" y="256.6426">Large Language Models (LLMs)</text></g><!--entity SmallModels--><g class="entity" data-entity="SmallModels" data-source-line="21" data-uid="ent0014" id="entity_SmallModels"><rect fill="#F1F1F1" height="47.6094" rx="2.5" ry="2.5" style="stroke:#181818;stroke-width:0.5;" width="199.5166" x="848" y="222.1094"/><rect fill="#F1F1F1" height="10" style="stroke:#181818;stroke-width:0.5;" width="15" x="1027.5166" y="227.1094"/><rect fill="#F1F1F1" height="2" style="stroke:#181818;stroke-width:0.5;" width="4" x="1025.5166" y="229.1094"/><rect fill="#F1F1F1" height="2" style="stroke:#181818;stroke-width:0.5;" width="4" x="1025.5166" y="233.1094"/><text fill="#000000" font-family="sans-serif" font-size="14" lengthAdjust="spacing" textLength="159.5166" x="863" y="256.6426">Small/Specialized Models</text></g><!--entity InfServer--><g class="entity" data-entity="InfServer" data-source-line="25" data-uid="ent0016" id="entity_InfServer"><rect fill="#F1F1F1" height="47.6094" rx="2.5" ry="2.5" style="stroke:#181818;stroke-width:0.5;" width="210.4063" x="1025" y="380.6094"/><rect fill="#F1F1F1" height="10" style="stroke:#181818;stroke-width:0.5;" width="15" x="1215.4063" y="385.6094"/><rect fill="#F1F1F1" height="2" style="stroke:#181818;stroke-width:0.5;" width="4" x="1213.4063" y="387.6094"/><rect fill="#F1F1F1" height="2" style="stroke:#181818;stroke-width:0.5;" width="4" x="1213.4063" y="391.6094"/><text fill="#000000" font-family="sans-serif" font-size="14" lengthAdjust="spacing" textLength="170.4063" x="1040" y="415.1426">Optimized Inference Server</text></g><!--entity Telemetry--><g class="entity" data-entity="Telemetry" data-source-line="29" data-uid="ent0018" id="entity_Telemetry"><rect fill="#F1F1F1" height="47.6094" rx="2.5" ry="2.5" style="stroke:#181818;stroke-width:0.5;" width="200.2686" x="403" y="380.6094"/><rect fill="#F1F1F1" height="10" style="stroke:#181818;stroke-width:0.5;" width="15" x="583.2686" y="385.6094"/><rect fill="#F1F1F1" height="2" style="stroke:#181818;stroke-width:0.5;" width="4" x="581.2686" y="387.6094"/><rect fill="#F1F1F1" height="2" style="stroke:#181818;stroke-width:0.5;" width="4" x="581.2686" y="391.6094"/><text fill="#000000" font-family="sans-serif" font-size="14" lengthAdjust="spacing" textLength="160.2686" x="418" y="415.1426">Telemetry &amp; Observability</text></g><!--entity Profiler--><g class="entity" data-entity="Profiler" data-source-line="30" data-uid="ent0019" id="entity_Profiler"><rect fill="#F1F1F1" height="47.6094" rx="2.5" ry="2.5" style="stroke:#181818;stroke-width:0.5;" width="168.3789" x="435" y="508.6094"/><rect fill="#F1F1F1" height="10" style="stroke:#181818;stroke-width:0.5;" width="15" x="583.3789" y="513.6094"/><rect fill="#F1F1F1" height="2" style="stroke:#181818;stroke-width:0.5;" width="4" x="581.3789" y="515.6094"/><rect fill="#F1F1F1" height="2" style="stroke:#181818;stroke-width:0.5;" width="4" x="581.3789" y="519.6094"/><text fill="#000000" font-family="sans-serif" font-size="14" lengthAdjust="spacing" textLength="128.3789" x="450" y="543.1426">Performance Profiler</text></g><!--link Real-time Streams to StreamPlatform--><g class="link" data-entity-1="Real-time Streams" data-entity-2="StreamPlatform" data-source-line="33" data-uid="lnk20" id="link_Real-time Streams_StreamPlatform"><path d="M137.69,128.6494 C135.37,151.7794 132.3691,181.6494 129.7791,207.4594" fill="none" id="Real-time Streams-to-StreamPlatform" style="stroke:#181818;stroke-width:1;"/><polygon fill="#181818" points="129.18,213.4294,134.0586,204.8737,129.6792,208.4544,126.0986,204.075,129.18,213.4294" style="stroke:#181818;stroke-width:1;"/></g><!--link Batch Data Stores to ColumnStore--><g class="link" data-entity-1="Batch Data Stores" data-entity-2="ColumnStore" data-source-line="34" data-uid="lnk21" id="link_Batch Data Stores_ColumnStore"><path d="M331.32,128.6494 C332.65,151.7794 334.3565,181.6292 335.8365,207.4392" fill="none" id="Batch Data Stores-to-ColumnStore" style="stroke:#181818;stroke-width:1;"/><polygon fill="#181818" points="336.18,213.4294,339.6582,204.2151,335.8938,208.4376,331.6713,204.6731,336.18,213.4294" style="stroke:#181818;stroke-width:1;"/></g><!--link StreamPlatform to SIMDToken--><g class="link" data-entity-1="StreamPlatform" data-entity-2="SIMDToken" data-source-line="36" data-uid="lnk22" id="link_StreamPlatform_SIMDToken"><path d="M131.67,278.7794 C137.04,308.7894 143.9244,347.263 148.7444,374.233" fill="none" id="StreamPlatform-to-SIMDToken" style="stroke:#181818;stroke-width:1;"/><polygon fill="#181818" points="149.8,380.1394,152.1542,370.576,148.9204,375.2174,144.279,371.9835,149.8,380.1394" style="stroke:#181818;stroke-width:1;"/><text fill="#000000" font-family="sans-serif" font-size="13" lengthAdjust="spacing" textLength="95.3799" x="141" y="325.1045">Aligned Streams</text></g><!--link ColumnStore to SIMDToken--><g class="link" data-entity-1="ColumnStore" data-entity-2="SIMDToken" data-source-line="37" data-uid="lnk23" id="link_ColumnStore_SIMDToken"><path d="M302.45,278.7094 C285.21,293.9194 264.14,312.3394 245,328.6094 C224.25,346.2394 205.1478,362.0049 187.1178,376.7249" fill="none" id="ColumnStore-to-SIMDToken" style="stroke:#181818;stroke-width:1;"/><polygon fill="#181818" points="182.47,380.5194,191.9713,377.9261,186.3431,377.3573,186.912,371.7291,182.47,380.5194" style="stroke:#181818;stroke-width:1;"/><text fill="#000000" font-family="sans-serif" font-size="13" lengthAdjust="spacing" textLength="93.9517" x="267" y="325.1045">Aligned Batches</text></g><!--link SIMDToken to EmbeddingStore--><g class="link" data-entity-1="SIMDToken" data-entity-2="EmbeddingStore" data-source-line="39" data-uid="lnk24" id="link_SIMDToken_EmbeddingStore"><path d="M152.17,428.7194 C150.37,451.3094 148.1345,479.5482 146.3345,502.2382" fill="none" id="SIMDToken-to-EmbeddingStore" style="stroke:#181818;stroke-width:1;"/><polygon fill="#181818" points="145.86,508.2194,150.5592,499.5639,146.2554,503.235,142.5843,498.9312,145.86,508.2194" style="stroke:#181818;stroke-width:1;"/><text fill="#000000" font-family="sans-serif" font-size="13" lengthAdjust="spacing" textLength="91.0508" x="151" y="475.1045">Tokenized Data</text></g><!--link EmbeddingStore to BatchManager--><g class="link" data-entity-1="EmbeddingStore" data-entity-2="BatchManager" data-source-line="40" data-uid="lnk25" id="link_EmbeddingStore_BatchManager"><path d="M146.2,556.7194 C148.35,579.3094 151.0414,607.5564 153.2014,630.2464" fill="none" id="EmbeddingStore-to-BatchManager" style="stroke:#181818;stroke-width:1;"/><polygon fill="#181818" points="153.77,636.2194,156.8991,626.8808,153.2962,631.2419,148.9351,627.639,153.77,636.2194" style="stroke:#181818;stroke-width:1;"/><text fill="#000000" font-family="sans-serif" font-size="13" lengthAdjust="spacing" textLength="72.2681" x="152" y="603.1045">Embeddings</text></g><!--link BatchManager to LLM--><g class="link" data-entity-1="BatchManager" data-entity-2="LLM" data-source-line="42" data-uid="lnk26" id="link_BatchManager_LLM"><path d="M265.6,655.1494 C386.54,647.8594 570.54,628.9494 619,580.6094 C705.55,494.2694 701.8572,336.9196 696.9272,276.4096" fill="none" id="BatchManager-to-LLM" style="stroke:#181818;stroke-width:1;"/><polygon fill="#181818" points="696.44,270.4294,693.1841,279.7245,696.846,275.4129,701.1576,279.0748,696.44,270.4294" style="stroke:#181818;stroke-width:1;"/><text fill="#000000" font-family="sans-serif" font-size="13" lengthAdjust="spacing" textLength="155.3652" x="683" y="475.1045">Training/Inference Batches</text></g><!--link BatchManager to SmallModels--><g class="link" data-entity-1="BatchManager" data-entity-2="SmallModels" data-source-line="43" data-uid="lnk27" id="link_BatchManager_SmallModels"><path d="M265.63,658.2094 C360.71,654.3794 501.04,642.3894 618,606.6094 C729.5,572.4994 761.17,557.5294 847,478.6094 C906.53,423.8694 926.03,405.8494 950,328.6094 C955.91,309.5494 955.525,292.7038 953.245,276.0738" fill="none" id="BatchManager-to-SmallModels" style="stroke:#181818;stroke-width:1;"/><polygon fill="#181818" points="952.43,270.1294,949.6896,279.5893,953.1092,275.083,957.6154,278.5026,952.43,270.1294" style="stroke:#181818;stroke-width:1;"/><text fill="#000000" font-family="sans-serif" font-size="13" lengthAdjust="spacing" textLength="155.3652" x="867" y="475.1045">Training/Inference Batches</text></g><!--link LLM to InfServer--><g class="link" data-entity-1="LLM" data-entity-2="InfServer" data-source-line="45" data-uid="lnk28" id="link_LLM_InfServer"><path d="M696.64,270.3494 C700.02,288.9194 707.68,314.1594 725,328.6094 C769.55,365.7694 914.3362,385.3889 1018.7862,395.1889" fill="none" id="LLM-to-InfServer" style="stroke:#181818;stroke-width:1;"/><polygon fill="#181818" points="1024.76,395.7494,1016.173,390.9261,1019.7819,395.2823,1015.4257,398.8912,1024.76,395.7494" style="stroke:#181818;stroke-width:1;"/><text fill="#000000" font-family="sans-serif" font-size="13" lengthAdjust="spacing" textLength="85.9854" x="726" y="325.1045">Deploy Models</text></g><!--link SmallModels to InfServer--><g class="link" data-entity-1="SmallModels" data-entity-2="InfServer" data-source-line="46" data-uid="lnk29" id="link_SmallModels_InfServer"><path d="M974.85,270.1994 C1009.26,299.7894 1064.02,346.8782 1098.49,376.5082" fill="none" id="SmallModels-to-InfServer" style="stroke:#181818;stroke-width:1;"/><polygon fill="#181818" points="1103.04,380.4194,1098.8224,371.5193,1099.2483,377.1601,1093.6075,377.586,1103.04,380.4194" style="stroke:#181818;stroke-width:1;"/><text fill="#000000" font-family="sans-serif" font-size="13" lengthAdjust="spacing" textLength="85.9854" x="1040" y="325.1045">Deploy Models</text></g><!--link InfServer to Telemetry--><g class="link" data-entity-1="InfServer" data-entity-2="Telemetry" data-source-line="48" data-uid="lnk30" id="link_InfServer_Telemetry"><path d="M1024.82,404.6094 C907.3,404.6094 724.43,404.6094 609.04,404.6094" fill="none" id="InfServer-to-Telemetry" style="stroke:#181818;stroke-width:1;"/><polygon fill="#181818" points="603.04,404.6094,612.04,408.6094,608.04,404.6094,612.04,400.6094,603.04,404.6094" style="stroke:#181818;stroke-width:1;"/><text fill="#000000" font-family="sans-serif" font-size="13" lengthAdjust="spacing" textLength="99.7026" x="764.5" y="398.1045">Inference Metrics</text></g><!--link LLM to Telemetry--><g class="link" data-entity-1="LLM" data-entity-2="Telemetry" data-source-line="49" data-uid="lnk31" id="link_LLM_Telemetry"><path d="M616,270.1294 C592.74,279.8194 568.53,293.0294 550,310.6094 C529.79,329.7794 518.8334,353.8628 511.7534,374.5428" fill="none" id="LLM-to-Telemetry" style="stroke:#181818;stroke-width:1;"/><polygon fill="#181818" points="509.81,380.2194,516.5095,373.0002,511.4295,375.4889,508.9408,370.409,509.81,380.2194" style="stroke:#181818;stroke-width:1;"/><text fill="#000000" font-family="sans-serif" font-size="13" lengthAdjust="spacing" textLength="92.4663" x="551" y="325.1045">Training Metrics</text></g><!--link SmallModels to Telemetry--><g class="link" data-entity-1="SmallModels" data-entity-2="Telemetry" data-source-line="50" data-uid="lnk32" id="link_SmallModels_Telemetry"><path d="M913.42,270.1994 C881.32,291.3094 835.65,320.4394 816,328.6094 C747.51,357.0994 671.7866,375.1 609.0666,386.9" fill="none" id="SmallModels-to-Telemetry" style="stroke:#181818;stroke-width:1;"/><polygon fill="#181818" points="603.17,388.0094,612.7544,390.2764,608.0838,387.0849,611.2753,382.4143,603.17,388.0094" style="stroke:#181818;stroke-width:1;"/><text fill="#000000" font-family="sans-serif" font-size="13" lengthAdjust="spacing" textLength="92.4663" x="849" y="325.1045">Training Metrics</text></g><!--link Telemetry to Profiler--><g class="link" data-entity-1="Telemetry" data-entity-2="Profiler" data-source-line="52" data-uid="lnk33" id="link_Telemetry_Profiler"><path d="M505.93,428.7194 C508.8,451.3094 512.3945,479.5771 515.2745,502.2671" fill="none" id="Telemetry-to-Profiler" style="stroke:#181818;stroke-width:1;"/><polygon fill="#181818" points="516.03,508.2194,518.8649,498.7873,515.4004,503.2592,510.9286,499.7947,516.03,508.2194" style="stroke:#181818;stroke-width:1;"/><text fill="#000000" font-family="sans-serif" font-size="13" lengthAdjust="spacing" textLength="75.1499" x="512" y="475.1045">Provide Data</text></g><!--link Profiler to SIMDToken--><g class="link" data-entity-1="Profiler" data-entity-2="SIMDToken" data-source-line="53" data-uid="lnk34" id="link_Profiler_SIMDToken"><path d="M452.17,508.5394 C386.45,485.8494 292.3715,453.3774 226.6215,430.6774" fill="none" id="Profiler-to-SIMDToken" style="stroke:#181818;stroke-width:1;"/><polygon fill="#181818" points="220.95,428.7194,228.1519,435.4375,225.6763,430.3511,230.7626,427.8755,220.95,428.7194" style="stroke:#181818;stroke-width:1;"/><text fill="#000000" font-family="sans-serif" font-size="13" lengthAdjust="spacing" textLength="132.9517" x="360" y="475.1045">Optimization Feedback</text></g><!--link Profiler to EmbeddingStore--><g class="link" data-entity-1="Profiler" data-entity-2="EmbeddingStore" data-source-line="54" data-uid="lnk35" id="link_Profiler_EmbeddingStore"><path d="M434.71,532.6094 C384.98,532.6094 327.17,532.6094 272.01,532.6094" fill="none" id="Profiler-to-EmbeddingStore" style="stroke:#181818;stroke-width:1;"/><polygon fill="#181818" points="266.01,532.6094,275.01,536.6094,271.01,532.6094,275.01,528.6094,266.01,532.6094" style="stroke:#181818;stroke-width:1;"/><text fill="#000000" font-family="sans-serif" font-size="13" lengthAdjust="spacing" textLength="132.9517" x="284.5" y="526.1045">Optimization Feedback</text></g><!--link Profiler to BatchManager--><g class="link" data-entity-1="Profiler" data-entity-2="BatchManager" data-source-line="55" data-uid="lnk36" id="link_Profiler_BatchManager"><path d="M452.42,556.7194 C387.03,579.4194 293.4882,611.8816 228.1282,634.5716" fill="none" id="Profiler-to-BatchManager" style="stroke:#181818;stroke-width:1;"/><polygon fill="#181818" points="222.46,636.5394,232.2741,637.3666,227.1835,634.8996,229.6504,629.809,222.46,636.5394" style="stroke:#181818;stroke-width:1;"/><text fill="#000000" font-family="sans-serif" font-size="13" lengthAdjust="spacing" textLength="132.9517" x="361" y="603.1045">Optimization Feedback</text></g><!--SRC=[ZLJ1Zjem4BtdAqOSLkm1SS-X4jtiIgX4eBBgfUt194EmSEpKCLknLV-zOpiESHPGR_7CUszcFCynt0Y49rKtIg8qa75MQLQda373PclDAOWbPDZoIi8qMsUFi5SQ5alOy0O5bvWa3IkEh4AOM19irKaN22jsHZs1Fmd0zw_8nCpm6c5hDBAw_McZdvaf3k0vHccawD-ns59Ms1gk93muaCqCb8k-yScJ4gTQCXrWF-HqGLe7X8NMwlTym_Il4vh72R0MFDXLZLLyVrnMi17CqAGrwNnX-oEREnbu4RmwT2eU781Hynkj2cnRA_G0tx2WIloTkK6kjxzTvXcygYFAW7kM5TskBqH9bnkDRCURBQWZIJjwhdTObhQYcyiH-zYLKGFFtRFVHSuaTQyTrKMwG3GQhJvN9OeRWwoOTZkIrSd27RI5wMgLj_xMw6iqUis4c6yRB3WJ_9rQyYG_katwSzJ55lMRlzsbtAD6MTmonheXvpdP2zAokpafw4-HVAuajpjp5Jg5U-jxHO4r6dssy5rBWcp71JTdLwFFngGDQciSPZiYm-ovw7eA1zlIbSS3izcdiVckl2O76pezYJbU9bWhXM28hamoeDw2kgBOadB8EMHikpJukZDR4gSTO-YszC8dvM76GSa_fAWPbmIONtOQUlb065ZeBZ4XPKVeBK6_GMo4EdU6J0PAzu59dt6uVl_fm8Cv1NZHzbK7eD1aZnaNleTDBbwqqE2br7wzyHBz3a9ulDd8wo-8vOwUH8mUR_S_AF5whnF-0G00]--></g></svg>