<svg xmlns="http://www.w3.org/2000/svg" xmlns:xlink="http://www.w3.org/1999/xlink" contentStyleType="text/css" data-diagram-type="DESCRIPTION" height="649px" preserveAspectRatio="none" style="width:390px;height:649px;background:#FFFFFF;" version="1.1" viewBox="0 0 390 649" width="390px" zoomAndPan="magnify"><title>Azure Architecture: DOD &amp; Branch Prediction Analogy</title><defs/><g><g class="title" data-source-line="1"><text fill="#000000" font-family="sans-serif" font-size="14" font-weight="bold" lengthAdjust="spacing" textLength="362.5029" x="10" y="24.5332">Azure Architecture: DOD &amp; Branch Prediction Analogy</text></g><!--cluster CPU and Local L1 Cache (Azure VM/Containers)--><g class="cluster" data-entity="CPU and Local L1 Cache .Azure VM.Containers." data-source-line="3" data-uid="ent0002" id="cluster_CPU and Local L1 Cache .Azure VM.Containers."><path d="M30.2515,44.6094 L350.1958,44.6094 A3.75,3.75 0 0 1 352.6958,47.1094 L359.6958,68.2188 L359.2515,68.2188 A2.5,2.5 0 0 1 361.7515,70.7188 L361.7515,142.1094 A2.5,2.5 0 0 1 359.2515,144.6094 L30.2515,144.6094 A2.5,2.5 0 0 1 27.7515,142.1094 L27.7515,47.1094 A2.5,2.5 0 0 1 30.2515,44.6094" fill="none" style="stroke:#000000;stroke-width:1.5;"/><line style="stroke:#000000;stroke-width:1.5;" x1="27.7515" x2="359.6958" y1="68.2188" y2="68.2188"/><text fill="#000000" font-family="sans-serif" font-size="14" font-weight="bold" lengthAdjust="spacing" textLength="318.9443" x="31.7515" y="61.1426">CPU and Local L1 Cache (Azure VM/Containers)</text></g><!--cluster L2/L3 Cache (Azure Redis)--><g class="cluster" data-entity="L2.L3 Cache .Azure Redis." data-source-line="7" data-uid="ent0004" id="cluster_L2.L3 Cache .Azure Redis."><path d="M59.2515,210.6094 L236.8511,210.6094 A3.75,3.75 0 0 1 239.3511,213.1094 L246.3511,234.2188 L246.2515,234.2188 A2.5,2.5 0 0 1 248.7515,236.7188 L248.7515,308.1094 A2.5,2.5 0 0 1 246.2515,310.6094 L59.2515,310.6094 A2.5,2.5 0 0 1 56.7515,308.1094 L56.7515,213.1094 A2.5,2.5 0 0 1 59.2515,210.6094" fill="none" style="stroke:#000000;stroke-width:1.5;"/><line style="stroke:#000000;stroke-width:1.5;" x1="56.7515" x2="246.3511" y1="234.2188" y2="234.2188"/><text fill="#000000" font-family="sans-serif" font-size="14" font-weight="bold" lengthAdjust="spacing" textLength="176.5996" x="60.7515" y="227.1426">L2/L3 Cache (Azure Redis)</text></g><!--cluster RAM (Azure SQL Server)--><g class="cluster" data-entity="RAM .Azure SQL Server." data-source-line="11" data-uid="ent0006" id="cluster_RAM .Azure SQL Server."><path d="M25.2515,376.6094 L190.396,376.6094 A3.75,3.75 0 0 1 192.896,379.1094 L199.896,400.2188 L370.2515,400.2188 A2.5,2.5 0 0 1 372.7515,402.7188 L372.7515,474.1094 A2.5,2.5 0 0 1 370.2515,476.6094 L25.2515,476.6094 A2.5,2.5 0 0 1 22.7515,474.1094 L22.7515,379.1094 A2.5,2.5 0 0 1 25.2515,376.6094" fill="none" style="stroke:#000000;stroke-width:1.5;"/><line style="stroke:#000000;stroke-width:1.5;" x1="22.7515" x2="199.896" y1="400.2188" y2="400.2188"/><text fill="#000000" font-family="sans-serif" font-size="14" font-weight="bold" lengthAdjust="spacing" textLength="164.1445" x="26.7515" y="393.1426">RAM (Azure SQL Server)</text></g><!--cluster Persistent Storage (Azure Data Lake/Blob)--><g class="cluster" data-entity="Persistent Storage .Azure Data Lake.Blob." data-source-line="15" data-uid="ent0008" id="cluster_Persistent Storage .Azure Data Lake.Blob."><path d="M49.2515,542.6094 L331.0991,542.6094 A3.75,3.75 0 0 1 333.5991,545.1094 L340.5991,566.2188 L340.2515,566.2188 A2.5,2.5 0 0 1 342.7515,568.7188 L342.7515,640.1094 A2.5,2.5 0 0 1 340.2515,642.6094 L49.2515,642.6094 A2.5,2.5 0 0 1 46.7515,640.1094 L46.7515,545.1094 A2.5,2.5 0 0 1 49.2515,542.6094" fill="none" style="stroke:#000000;stroke-width:1.5;"/><line style="stroke:#000000;stroke-width:1.5;" x1="46.7515" x2="340.5991" y1="566.2188" y2="566.2188"/><text fill="#000000" font-family="sans-serif" font-size="14" font-weight="bold" lengthAdjust="spacing" textLength="280.8477" x="50.7515" y="559.1426">Persistent Storage (Azure Data Lake/Blob)</text></g><!--entity VM--><g class="entity" data-entity="VM" data-source-line="4" data-uid="ent0003" id="entity_VM"><rect fill="#F1F1F1" height="47.6094" rx="2.5" ry="2.5" style="stroke:#181818;stroke-width:0.5;" width="197.2129" x="74.2515" y="80.6094"/><rect fill="#F1F1F1" height="10" style="stroke:#181818;stroke-width:0.5;" width="15" x="251.4644" y="85.6094"/><rect fill="#F1F1F1" height="2" style="stroke:#181818;stroke-width:0.5;" width="4" x="249.4644" y="87.6094"/><rect fill="#F1F1F1" height="2" style="stroke:#181818;stroke-width:0.5;" width="4" x="249.4644" y="91.6094"/><text fill="#000000" font-family="sans-serif" font-size="14" lengthAdjust="spacing" textLength="157.2129" x="89.2515" y="115.1426">App Logic &amp; Local Cache</text></g><!--entity Redis--><g class="entity" data-entity="Redis" data-source-line="8" data-uid="ent0005" id="entity_Redis"><rect fill="#F1F1F1" height="47.6094" rx="2.5" ry="2.5" style="stroke:#181818;stroke-width:0.5;" width="120.1514" x="92.7515" y="246.6094"/><rect fill="#F1F1F1" height="10" style="stroke:#181818;stroke-width:0.5;" width="15" x="192.9028" y="251.6094"/><rect fill="#F1F1F1" height="2" style="stroke:#181818;stroke-width:0.5;" width="4" x="190.9028" y="253.6094"/><rect fill="#F1F1F1" height="2" style="stroke:#181818;stroke-width:0.5;" width="4" x="190.9028" y="257.6094"/><text fill="#000000" font-family="sans-serif" font-size="14" lengthAdjust="spacing" textLength="80.1514" x="107.7515" y="281.1426">Redis Cache</text></g><!--entity SQLServer--><g class="entity" data-entity="SQLServer" data-source-line="12" data-uid="ent0007" id="entity_SQLServer"><rect fill="#F1F1F1" height="47.6094" rx="2.5" ry="2.5" style="stroke:#181818;stroke-width:0.5;" width="317.751" x="38.7515" y="412.6094"/><rect fill="#F1F1F1" height="10" style="stroke:#181818;stroke-width:0.5;" width="15" x="336.5024" y="417.6094"/><rect fill="#F1F1F1" height="2" style="stroke:#181818;stroke-width:0.5;" width="4" x="334.5024" y="419.6094"/><rect fill="#F1F1F1" height="2" style="stroke:#181818;stroke-width:0.5;" width="4" x="334.5024" y="423.6094"/><text fill="#000000" font-family="sans-serif" font-size="14" lengthAdjust="spacing" textLength="277.751" x="53.7515" y="447.1426">SQL Server (Columnstore/In-memory tables)</text></g><!--entity Blob--><g class="entity" data-entity="Blob" data-source-line="16" data-uid="ent0009" id="entity_Blob"><rect fill="#F1F1F1" height="47.6094" rx="2.5" ry="2.5" style="stroke:#181818;stroke-width:0.5;" width="161.4063" x="90.2515" y="578.6094"/><rect fill="#F1F1F1" height="10" style="stroke:#181818;stroke-width:0.5;" width="15" x="231.6577" y="583.6094"/><rect fill="#F1F1F1" height="2" style="stroke:#181818;stroke-width:0.5;" width="4" x="229.6577" y="585.6094"/><rect fill="#F1F1F1" height="2" style="stroke:#181818;stroke-width:0.5;" width="4" x="229.6577" y="589.6094"/><text fill="#000000" font-family="sans-serif" font-size="14" lengthAdjust="spacing" textLength="121.4063" x="105.2515" y="613.1426">Azure Blob Storage</text></g><!--link VM to Redis--><g class="link" data-entity-1="VM" data-entity-2="Redis" data-source-line="19" data-uid="lnk10" id="link_VM_Redis"><path d="M133.1315,128.7194 C122.2115,137.2394 111.7315,147.9594 105.7515,160.6094 C91.9215,189.8594 108.9335,219.5844 127.0935,241.7944" fill="none" id="VM-to-Redis" style="stroke:#181818;stroke-width:1;"/><polygon fill="#181818" points="130.8915,246.4394,128.2912,236.94,127.7265,242.5686,122.0979,242.0039,130.8915,246.4394" style="stroke:#181818;stroke-width:1;"/><text fill="#000000" font-family="sans-serif" font-size="13" lengthAdjust="spacing" textLength="67.9072" x="106.7515" y="175.1045">Cache Miss</text><text fill="#000000" font-family="sans-serif" font-size="13" lengthAdjust="spacing" textLength="52.0127" x="114.6987" y="191.4561">(unlikely)</text></g><!--link Redis to VM--><g class="link" data-entity-1="Redis" data-entity-2="VM" data-source-line="20" data-uid="lnk11" id="link_Redis_VM"><path d="M163.0115,246.4894 C168.9115,231.9294 175.7315,212.5494 178.7515,194.6094 C181.2615,179.7094 179.5715,175.6994 178.7515,160.6094 C178.1815,150.1594 177.7182,144.5876 176.5582,134.8076" fill="none" id="Redis-to-VM" style="stroke:#181818;stroke-width:1;"/><polygon fill="#181818" points="175.8515,128.8494,172.9394,138.2579,176.4404,133.8146,180.8837,137.3156,175.8515,128.8494" style="stroke:#181818;stroke-width:1;"/><text fill="#000000" font-family="sans-serif" font-size="13" lengthAdjust="spacing" textLength="57.0781" x="210.0205" y="175.1045">Cache Hit</text><text fill="#000000" font-family="sans-serif" font-size="13" lengthAdjust="spacing" textLength="115.6162" x="180.7515" y="191.4561">(likely, aligned data)</text></g><!--link Redis to SQLServer--><g class="link" data-entity-1="Redis" data-entity-2="SQLServer" data-source-line="22" data-uid="lnk12" id="link_Redis_SQLServer"><path d="M133.3215,294.8394 C120.6815,312.8994 108.1815,338.5194 117.7515,360.6094 C126.8315,381.5694 140.2444,395.6769 156.9544,408.6669" fill="none" id="Redis-to-SQLServer" style="stroke:#181818;stroke-width:1;"/><polygon fill="#181818" points="161.6915,412.3494,157.0409,403.6677,157.7439,409.2807,152.1309,409.9837,161.6915,412.3494" style="stroke:#181818;stroke-width:1;"/><text fill="#000000" font-family="sans-serif" font-size="13" lengthAdjust="spacing" textLength="67.9072" x="118.7515" y="341.1045">Cache Miss</text><text fill="#000000" font-family="sans-serif" font-size="13" lengthAdjust="spacing" textLength="52.0127" x="126.6987" y="357.4561">(unlikely)</text></g><!--link SQLServer to Redis--><g class="link" data-entity-1="SQLServer" data-entity-2="Redis" data-source-line="23" data-uid="lnk13" id="link_SQLServer_Redis"><path d="M199.7815,412.3594 C200.9415,389.7994 200.5815,354.9094 190.7515,326.6094 C186.7915,315.2094 183.359,308.7987 176.429,299.5087" fill="none" id="SQLServer-to-Redis" style="stroke:#181818;stroke-width:1;"/><polygon fill="#181818" points="172.8415,294.6994,175.0166,304.305,175.8311,298.7071,181.429,299.5216,172.8415,294.6994" style="stroke:#181818;stroke-width:1;"/><text fill="#000000" font-family="sans-serif" font-size="13" lengthAdjust="spacing" textLength="59.9917" x="239.2146" y="341.1045">Data Load</text><text fill="#000000" font-family="sans-serif" font-size="13" lengthAdjust="spacing" textLength="140.918" x="198.7515" y="357.4561">(aligned, batch-oriented)</text></g><!--link SQLServer to Blob--><g class="link" data-entity-1="SQLServer" data-entity-2="Blob" data-source-line="25" data-uid="lnk14" id="link_SQLServer_Blob"><path d="M137.8215,460.7794 C124.6515,468.7994 112.3715,479.2494 104.7515,492.6094 C87.6515,522.5894 111.4154,552.525 136.0954,574.445" fill="none" id="SQLServer-to-Blob" style="stroke:#181818;stroke-width:1;"/><polygon fill="#181818" points="140.5815,578.4294,136.5086,569.4621,136.8431,575.1091,131.1961,575.4435,140.5815,578.4294" style="stroke:#181818;stroke-width:1;"/><text fill="#000000" font-family="sans-serif" font-size="13" lengthAdjust="spacing" textLength="59.2173" x="131.7737" y="507.1045">Miss/Error</text><text fill="#000000" font-family="sans-serif" font-size="13" lengthAdjust="spacing" textLength="111.2617" x="105.7515" y="523.4561">(rare path, slowest)</text></g><!--link Blob to SQLServer--><g class="link" data-entity-1="Blob" data-entity-2="SQLServer" data-source-line="26" data-uid="lnk15" id="link_Blob_SQLServer"><path d="M191.8015,578.5594 C203.0715,564.6194 215.8215,545.8694 221.7515,526.6094 C228.5815,504.4294 222.5911,484.2173 213.8411,466.1873" fill="none" id="Blob-to-SQLServer" style="stroke:#181818;stroke-width:1;"/><polygon fill="#181818" points="211.2215,460.7894,211.5523,470.6327,213.4045,465.2876,218.7495,467.1398,211.2215,460.7894" style="stroke:#181818;stroke-width:1;"/><text fill="#000000" font-family="sans-serif" font-size="13" lengthAdjust="spacing" textLength="57.8081" x="263.0437" y="507.1045">Cold Data</text><text fill="#000000" font-family="sans-serif" font-size="13" lengthAdjust="spacing" textLength="134.3926" x="224.7515" y="523.4561">(batch-load, structured)</text></g><!--SRC=[TP91IyD048Nl-HL33j92Gr1lFGXfAYYaM5lqv6Mw6PAbszsmcIfL_EzEDgrjiUQmi3lllMzc26is1DddrilfLQsP5Cjb3DEdALp1nADLDSmzbLgnTXOoYyPLkoXgKAsn8eZp-GkWBQ5m2WqKrv2ZgWa6VUhhBCsTPTIMV3kCuIi2-PJRDCwIPOYpfX5hfPNW-eZWZm5RCKVV9wJY9Yrkp-CNqjZ5s50uYGhtixH5DZkaB9yBM99_9tyfwbY5GUxCTcDRTfxIHvjiQEFy3XXNXhes12JgNdm6cylqkkKkRodcxctFdY8Z5BYcT6BSwkA6Wgwh7hm1r3rqZDSP9CbTFo2Cz-kPwRPziuEjDNfDPZUC-d8d5Fr1zQ1PHBra16XqPQc4KZeQHYUEtv7-ZpzAJdlfPtDOYdQVFe8LigeJvxKCHwM0phrXpd4WfFVUEozUZxA01haUGMlS1xKyZ8BkJtVEb84gffvZX2ukzjlmOmll1m00]--></g></svg>